<svg width="33" height="33" viewBox="0 0 24 32" fill="none" xmlns="http://www.w3.org/2000/svg">
  <path d="M11.9695 0L0 8.6658V24.0925L0.0012375 24.2063C0.061875 26.7032 2.10416 28.7088 4.61505 28.7088H13.5993C14.2993 29.9842 15.1685 30.9622 16.2063 31.6433C17.2446 32.3239 18.6368 32.7764 20.3837 33L20.1704 32.7224C19.5525 31.9073 19.1375 31.2531 18.9255 30.7597C18.6896 30.2115 18.5642 29.528 18.5485 28.7088H19.0988C21.648 28.7088 23.7142 26.6421 23.7142 24.0929V8.66539L20.698 6.44036V1.8942H16.7079V3.49635L11.9695 0Z" fill="url(#paint0_linear_14_850)"/>
  <defs>
    <linearGradient id="paint0_linear_14_850" x1="1555.49" y1="495.396" x2="143.628" y2="2718.74" gradientUnits="userSpaceOnUse">
      <stop stop-color="#44A0D9"/>
      <stop offset="1" stop-color="#235589"/>
    </linearGradient>
  </defs>
</svg>